<svg width="237" height="48" viewBox="0 0 237 48" fill="none" xmlns="http://www.w3.org/2000/svg">
<path d="M13.2879 33.96C13.2879 36.616 12.8079 38.808 11.8479 40.536C10.9199 42.264 9.67192 43.608 8.10392 44.568C6.56792 45.56 4.72792 46.408 2.58392 47.112L0.471924 41.544C1.87992 41 2.93592 40.376 3.63992 39.672C4.34392 38.968 4.80792 38.152 5.03192 37.224C5.28792 36.296 5.41592 35.112 5.41592 33.672V5.73601H13.2879V33.96Z" fill="#141414"/>
<path d="M30.2503 12.696C34.1543 12.696 37.2103 13.896 39.4183 16.296C41.6263 18.664 42.7303 21.992 42.7303 26.28C42.7303 29 42.2183 31.384 41.1943 33.432C40.2023 35.448 38.7623 37.016 36.8743 38.136C35.0183 39.256 32.8103 39.816 30.2503 39.816C26.3783 39.816 23.3223 38.632 21.0823 36.264C18.8743 33.864 17.7703 30.52 17.7703 26.232C17.7703 23.512 18.2663 21.144 19.2583 19.128C20.2823 17.08 21.7223 15.496 23.5783 14.376C25.4663 13.256 27.6903 12.696 30.2503 12.696ZM30.2503 18.264C28.7143 18.264 27.5623 18.92 26.7943 20.232C26.0263 21.512 25.6423 23.512 25.6423 26.232C25.6423 29.016 26.0103 31.048 26.7463 32.328C27.5143 33.608 28.6823 34.248 30.2503 34.248C31.7863 34.248 32.9383 33.608 33.7063 32.328C34.4743 31.016 34.8583 29 34.8583 26.28C34.8583 23.496 34.4743 21.464 33.7063 20.184C32.9703 18.904 31.8183 18.264 30.2503 18.264Z" fill="#141414"/>
<path d="M67.0288 31.608C67.0288 32.568 67.1568 33.272 67.4128 33.72C67.7008 34.168 68.1488 34.504 68.7568 34.728L67.1728 39.672C65.6048 39.544 64.3248 39.208 63.3328 38.664C62.3408 38.088 61.5728 37.192 61.0288 35.976C59.3648 38.536 56.8048 39.816 53.3488 39.816C50.8208 39.816 48.8048 39.08 47.3008 37.608C45.7968 36.136 45.0448 34.216 45.0448 31.848C45.0448 29.064 46.0688 26.936 48.1168 25.464C50.1648 23.992 53.1248 23.256 56.9968 23.256H59.5888V22.152C59.5888 20.648 59.2688 19.624 58.6288 19.08C57.9888 18.504 56.8688 18.216 55.2688 18.216C54.4368 18.216 53.4288 18.344 52.2448 18.6C51.0608 18.824 49.8448 19.144 48.5968 19.56L46.8688 14.568C48.4688 13.96 50.1008 13.496 51.7648 13.176C53.4608 12.856 55.0288 12.696 56.4688 12.696C60.1168 12.696 62.7888 13.448 64.4848 14.952C66.1808 16.456 67.0288 18.712 67.0288 21.72V31.608ZM55.5568 34.392C57.2848 34.392 58.6288 33.576 59.5888 31.944V27.432H57.7168C55.9888 27.432 54.6928 27.736 53.8288 28.344C52.9968 28.952 52.5808 29.896 52.5808 31.176C52.5808 32.2 52.8368 33 53.3488 33.576C53.8928 34.12 54.6288 34.392 55.5568 34.392ZM59.5888 8.52001C58.8848 8.52001 58.2768 8.40801 57.7648 8.18401C57.2528 7.96001 56.6928 7.64001 56.0848 7.22401C55.2848 6.64801 54.6288 6.36001 54.1168 6.36001C53.5728 6.36001 53.1088 6.53601 52.7248 6.88801C52.3728 7.20801 51.9888 7.73601 51.5728 8.47201L47.7808 6.64801C48.4208 4.98401 49.2688 3.62401 50.3248 2.56801C51.4128 1.51201 52.6288 0.984009 53.9728 0.984009C54.7088 0.984009 55.3328 1.11201 55.8448 1.36801C56.3888 1.59201 56.9808 1.91201 57.6208 2.32801C58.0688 2.61601 58.4208 2.82401 58.6768 2.95201C58.9648 3.08001 59.2528 3.14401 59.5408 3.14401C60.0528 3.14401 60.4848 2.98401 60.8368 2.66401C61.2208 2.31201 61.6208 1.76801 62.0368 1.03201L65.8288 2.90401C65.1568 4.60001 64.2768 5.96001 63.1888 6.98401C62.1328 8.00801 60.9328 8.52001 59.5888 8.52001Z" fill="#141414"/>
<path d="M84.1097 12.696C88.0137 12.696 91.0697 13.896 93.2777 16.296C95.4857 18.664 96.5897 21.992 96.5897 26.28C96.5897 29 96.0777 31.384 95.0537 33.432C94.0617 35.448 92.6217 37.016 90.7337 38.136C88.8777 39.256 86.6697 39.816 84.1097 39.816C80.2377 39.816 77.1817 38.632 74.9417 36.264C72.7337 33.864 71.6297 30.52 71.6297 26.232C71.6297 23.512 72.1257 21.144 73.1177 19.128C74.1417 17.08 75.5817 15.496 77.4377 14.376C79.3257 13.256 81.5497 12.696 84.1097 12.696ZM84.1097 18.264C82.5737 18.264 81.4217 18.92 80.6537 20.232C79.8857 21.512 79.5017 23.512 79.5017 26.232C79.5017 29.016 79.8697 31.048 80.6057 32.328C81.3737 33.608 82.5417 34.248 84.1097 34.248C85.6457 34.248 86.7977 33.608 87.5657 32.328C88.3337 31.016 88.7177 29 88.7177 26.28C88.7177 23.496 88.3337 21.464 87.5657 20.184C86.8297 18.904 85.6777 18.264 84.1097 18.264Z" fill="#141414"/>
<path d="M123.388 5.73601C127.772 5.73601 131.18 6.64801 133.612 8.47201C136.044 10.296 137.26 13 137.26 16.584C137.26 20.328 136.06 23.16 133.66 25.08C131.292 26.968 128.108 27.912 124.108 27.912H120.508V39H112.636V5.73601H123.388ZM123.436 22.248C125.292 22.248 126.7 21.816 127.66 20.952C128.652 20.056 129.148 18.6 129.148 16.584C129.148 13.096 127.196 11.352 123.292 11.352H120.508V22.248H123.436Z" fill="#141414"/>
<path d="M162.044 25.752C162.044 26.808 161.996 27.72 161.9 28.488H146.108C146.364 30.632 146.972 32.136 147.932 33C148.892 33.864 150.22 34.296 151.916 34.296C152.94 34.296 153.932 34.12 154.892 33.768C155.852 33.384 156.892 32.808 158.012 32.04L161.132 36.264C158.156 38.632 154.844 39.816 151.196 39.816C147.068 39.816 143.9 38.6 141.692 36.168C139.484 33.736 138.38 30.472 138.38 26.376C138.38 23.784 138.844 21.464 139.772 19.416C140.7 17.336 142.06 15.704 143.852 14.52C145.644 13.304 147.788 12.696 150.284 12.696C153.964 12.696 156.844 13.848 158.924 16.152C161.004 18.456 162.044 21.656 162.044 25.752ZM154.604 23.592C154.54 19.688 153.164 17.736 150.476 17.736C149.164 17.736 148.14 18.216 147.404 19.176C146.7 20.136 146.268 21.72 146.108 23.928H154.604V23.592Z" fill="#141414"/>
<path d="M189.152 3.38401V39H182.432L182.048 36.024C180.256 38.552 177.84 39.816 174.8 39.816C171.632 39.816 169.216 38.6 167.552 36.168C165.92 33.736 165.104 30.408 165.104 26.184C165.104 23.592 165.536 21.272 166.4 19.224C167.264 17.176 168.48 15.576 170.048 14.424C171.648 13.272 173.472 12.696 175.52 12.696C177.952 12.696 179.968 13.496 181.568 15.096V2.56801L189.152 3.38401ZM177.152 34.248C178.912 34.248 180.384 33.288 181.568 31.368V20.376C180.96 19.64 180.336 19.096 179.696 18.744C179.088 18.392 178.384 18.216 177.584 18.216C176.176 18.216 175.056 18.872 174.224 20.184C173.392 21.496 172.976 23.512 172.976 26.232C172.976 29.208 173.328 31.288 174.032 32.472C174.768 33.656 175.808 34.248 177.152 34.248Z" fill="#141414"/>
<path d="M208.909 12.792C209.837 12.792 210.685 12.904 211.453 13.128L210.253 20.472C209.293 20.248 208.525 20.136 207.949 20.136C206.445 20.136 205.293 20.664 204.493 21.72C203.725 22.744 203.117 24.296 202.669 26.376V39H195.085V13.512H201.709L202.333 18.456C202.909 16.696 203.773 15.32 204.925 14.328C206.109 13.304 207.437 12.792 208.909 12.792Z" fill="#141414"/>
<path d="M223.938 12.696C227.842 12.696 230.898 13.896 233.106 16.296C235.314 18.664 236.418 21.992 236.418 26.28C236.418 29 235.906 31.384 234.882 33.432C233.89 35.448 232.45 37.016 230.562 38.136C228.706 39.256 226.498 39.816 223.938 39.816C220.066 39.816 217.01 38.632 214.77 36.264C212.562 33.864 211.458 30.52 211.458 26.232C211.458 23.512 211.954 21.144 212.946 19.128C213.97 17.08 215.41 15.496 217.266 14.376C219.154 13.256 221.378 12.696 223.938 12.696ZM223.938 18.264C222.402 18.264 221.25 18.92 220.482 20.232C219.714 21.512 219.33 23.512 219.33 26.232C219.33 29.016 219.698 31.048 220.434 32.328C221.202 33.608 222.37 34.248 223.938 34.248C225.474 34.248 226.626 33.608 227.394 32.328C228.162 31.016 228.546 29 228.546 26.28C228.546 23.496 228.162 21.464 227.394 20.184C226.658 18.904 225.506 18.264 223.938 18.264Z" fill="#141414"/>
</svg>
